<svg xmlns="http://www.w3.org/2000/svg" viewBox="0 0 512 512">
	<path fill="#fff" d="M76.7 370.59C79.68 366.08 80.87 361.83 80.28 357.85C79.33 351.49 73.43 346.07 62.6 341.59C38.95 332.93 25.31 316.47 21.68 292.21C17.69 265.56 22.65 237.57 36.55 208.24C50.45 178.91 71.3 153.93 99.11 133.29C126.9 112.66 158.11 99.75 192.69 94.56C232.05 88.67 266.7 96.8 296.64 118.95C326.57 141.11 344.82 174.06 351.37 217.81C352.23 223.61 352.81 229.46 353.14 235.33C364.54 212.16 376.17 190.31 388.02 169.8C389.76 166.78 391.5 163.83 393.22 160.91C382.29 134.37 364.03 112.9 338.4 96.53C301.77 73.15 257.42 65.35 205.34 73.15C162.8 79.52 124.91 94.56 91.67 118.24C58.43 141.93 34.15 171.19 18.84 206.01C3.52 240.85 -1.69 274.57 3.19 307.18C5.87 325.08 13.87 341.87 27.19 357.57C40.52 373.26 52.94 380.24 64.47 378.52C69.63 377.74 73.71 375.1 76.7 370.59Z" />
	<path fill="#1fabdc" d="M280.07 475.82L322.31 367C329.91 347.17 337.05 329.72 343.75 314.69C350.44 299.66 359.14 281.07 369.85 258.93C380.56 236.79 390.35 217.33 399.22 200.54C408.09 183.76 415.51 170.86 421.47 161.83C416.18 178.08 411.96 205.55 408.81 244.25L399.54 337.13C394.1 390.41 388.59 429.67 383.02 454.9C395.94 448.9 407.18 445.18 416.72 443.75C423.07 442.8 434.13 441.96 449.87 441.23C464.42 440.67 475.28 439.86 482.43 438.79C490.38 437.6 498.61 435.55 507.12 432.65L508.2 415.41C497.36 419.07 486.97 421.64 477.04 423.13C465.11 424.91 451.36 425.36 435.78 424.43L455.75 211.59C461.75 148.47 468.77 97.61 476.81 58.99C451.36 79.07 422.49 117.05 390.21 172.91C357.92 228.79 327.31 294.48 298.37 369.98L247.95 151.22C246.48 144.12 244.49 130.8 241.97 111.25C232.52 115.92 157.08 137.53 132.9 143.17L131.79 156.15C144.67 152.6 151.77 155.2 153.08 163.94C153.5 166.73 153.44 170.4 152.9 174.95L134.72 350.91C131.45 380.68 126.27 401.08 119.19 412.11C112.09 423.14 98.48 430.56 78.32 434.39L73.31 449.79C87.95 447.18 101.84 444.9 114.96 442.94C139.2 439.3 160.79 436.88 179.72 435.67C198.64 434.46 215.26 432.79 229.57 430.65C242.56 428.7 254.86 425.91 266.47 422.3L261.72 401.28C246.98 408.05 230.64 412.79 212.67 415.49C197.17 417.81 179.83 418.79 160.67 418.4C174.43 385.44 183.39 339.35 187.54 280.17L200.6 162.5L280.07 475.82Z" />
</svg>